<svg width="20" height="20" viewBox="0 0 20 20" fill="none" xmlns="http://www.w3.org/2000/svg">
<path d="M10 5C9.47258 5 8.95701 5.1477 8.51848 5.42443C8.07995 5.70116 7.73815 6.09449 7.53632 6.55468C7.33449 7.01486 7.28168 7.52124 7.38457 8.00977C7.48747 8.4983 7.74144 8.94704 8.11438 9.29925C8.48732 9.65146 8.96248 9.89132 9.47976 9.9885C9.99704 10.0857 10.5332 10.0358 11.0205 9.84518C11.5078 9.65457 11.9242 9.33177 12.2173 8.91762C12.5103 8.50346 12.6667 8.01654 12.6667 7.51844C12.6667 6.85051 12.3857 6.20994 11.8856 5.73764C11.3855 5.26534 10.7072 5 10 5ZM14 13.8146C14 12.8127 13.5786 11.8518 12.8284 11.1433C12.0783 10.4349 11.0609 10.0369 10 10.0369C8.93913 10.0369 7.92172 10.4349 7.17157 11.1433C6.42143 11.8518 6 12.8127 6 13.8146V13.8146C6 14.4693 6.53074 15 7.18545 15H10H12.8146C13.4693 15 14 14.4693 14 13.8146V13.8146Z" stroke="#C8C5D0" stroke-width="1.5" stroke-linecap="round" stroke-linejoin="round"/>
<path d="M18 17V3C18 2.44772 17.602 2 17.1111 2L2.88889 2C2.39797 2 2 2.44772 2 3L2 17C2 17.5523 2.39797 18 2.88889 18H17.1111C17.602 18 18 17.5523 18 17Z" stroke="#C8C5D0" stroke-width="1.5" stroke-linecap="round" stroke-linejoin="round"/>
</svg>
