<svg width="24" height="24" viewBox="0 0 24 24" fill="none" xmlns="http://www.w3.org/2000/svg">
<path d="M21.8909 11.55C21.7609 11.29 18.5409 5 12.0009 5C5.46088 5 2.24088 11.29 2.11088 11.55C2.04054 11.6896 2.00391 11.8437 2.00391 12C2.00391 12.1563 2.04054 12.3104 2.11088 12.45C2.24088 12.71 5.46088 19 12.0009 19C18.5409 19 21.7609 12.71 21.8909 12.45C21.9612 12.3104 21.9978 12.1563 21.9978 12C21.9978 11.8437 21.9612 11.6896 21.8909 11.55Z" stroke="#686672" stroke-width="1.5"/>
<path d="M12 15C13.6569 15 15 13.6569 15 12C15 10.3431 13.6569 9 12 9C10.3431 9 9 10.3431 9 12C9 13.6569 10.3431 15 12 15Z" stroke="#686672" stroke-width="1.5"/>
</svg>
