<?xml version="1.0" encoding="UTF-8"?>
<!DOCTYPE svg PUBLIC "-//W3C//DTD SVG 1.1//EN" "http://www.w3.org/Graphics/SVG/1.1/DTD/svg11.dtd">
<svg xmlns="http://www.w3.org/2000/svg" version="1.1" width="659px" height="673px" style="shape-rendering:geometricPrecision; text-rendering:geometricPrecision; image-rendering:optimizeQuality; fill-rule:evenodd; clip-rule:evenodd" xmlns:xlink="http://www.w3.org/1999/xlink">
<g><path style="opacity:1" fill="#1c7ba5" d="M 499.5,61.5 C 499.821,63.0481 500.821,63.7148 502.5,63.5C 528.147,79.1328 551.147,98.1328 571.5,120.5C 571.427,122.027 572.094,123.027 573.5,123.5C 575.167,124.5 576.5,125.833 577.5,127.5C 577.738,129.404 578.738,130.738 580.5,131.5C 581.5,131.833 582.167,132.5 582.5,133.5C 582.738,135.404 583.738,136.738 585.5,137.5C 587.633,139.091 589.299,141.091 590.5,143.5C 590.427,145.027 591.094,146.027 592.5,146.5C 598.274,153.28 603.274,160.613 607.5,168.5C 607.427,170.027 608.094,171.027 609.5,171.5C 610.338,171.842 610.672,172.508 610.5,173.5C 610.427,175.027 611.094,176.027 612.5,176.5C 626.375,199.258 636.708,223.592 643.5,249.5C 643.41,252.152 644.076,254.485 645.5,256.5C 672.384,369.292 648.217,469.625 573,557.5C 496.09,638.169 401.923,672.669 290.5,661C 277.819,659.558 265.486,657.058 253.5,653.5C 251.485,652.076 249.152,651.41 246.5,651.5C 207.154,641.325 171.488,623.992 139.5,599.5C 139.027,598.094 138.027,597.427 136.5,597.5C 132.183,594.514 128.183,591.18 124.5,587.5C 123.738,585.738 122.404,584.738 120.5,584.5C 118.833,583.5 117.5,582.167 116.5,580.5C 116.027,579.094 115.027,578.427 113.5,578.5C 33.3862,502.024 -0.780489,408.358 11,297.5C 12.6414,283.455 15.4748,269.788 19.5,256.5C 20.9238,254.485 21.5905,252.152 21.5,249.5C 28.292,223.592 38.6253,199.258 52.5,176.5C 53.9063,176.027 54.573,175.027 54.5,173.5C 54.3284,172.508 54.6618,171.842 55.5,171.5C 56.9063,171.027 57.573,170.027 57.5,168.5C 61.7255,160.613 66.7255,153.28 72.5,146.5C 73.9063,146.027 74.573,145.027 74.5,143.5C 75.7007,141.091 77.3674,139.091 79.5,137.5C 81.2624,136.738 82.2624,135.404 82.5,133.5C 82.8333,132.5 83.5,131.833 84.5,131.5C 85.9063,131.027 86.573,130.027 86.5,128.5C 87.8333,126.5 89.5,124.833 91.5,123.5C 92.9063,123.027 93.573,122.027 93.5,120.5C 97.5,115.833 101.833,111.5 106.5,107.5C 110.436,105.234 113.769,102.234 116.5,98.5C 116.5,97.8333 116.833,97.5 117.5,97.5C 120.427,96.2427 122.761,94.2427 124.5,91.5C 127.089,90.5806 129.089,88.914 130.5,86.5C 157.372,64.3856 187.372,47.3856 220.5,35.5C 223.716,35.6545 226.383,34.6545 228.5,32.5C 323.155,2.42483 413.488,12.0915 499.5,61.5 Z"/></g>
<g><path style="opacity:1" fill="#fafcfd" d="M 305.5,31.5 C 413.169,25.7491 502.002,63.4158 572,144.5C 637.558,229.627 656.225,324.293 628,428.5C 602.762,508.193 553.929,568.693 481.5,610C 407.699,649.151 330.366,658.151 249.5,637C 143.003,603.836 72.1696,534.336 37,428.5C 8.77168,324.311 27.4383,229.645 93,144.5C 148.621,78.6014 219.455,40.9347 305.5,31.5 Z"/></g>
<g><path style="opacity:0.945" fill="#75acc6" d="M 228.5,32.5 C 226.383,34.6545 223.716,35.6545 220.5,35.5C 222.936,34.129 225.603,33.129 228.5,32.5 Z"/></g>
<g><path style="opacity:1" fill="#4ebfcc" d="M 346.5,47.5 C 351.64,48.4881 356.974,48.8214 362.5,48.5C 364.607,49.4682 366.941,49.8016 369.5,49.5C 371.607,50.4682 373.941,50.8016 376.5,50.5C 378.607,51.4682 380.941,51.8016 383.5,51.5C 384.568,52.4345 385.901,52.7678 387.5,52.5C 388.919,53.4511 390.585,53.7845 392.5,53.5C 394.265,54.4614 396.265,54.7947 398.5,54.5C 399.209,55.404 400.209,55.7373 401.5,55.5C 402.568,56.4345 403.901,56.7678 405.5,56.5C 406.568,57.4345 407.901,57.7678 409.5,57.5C 410.209,58.404 411.209,58.7373 412.5,58.5C 413.568,59.4345 414.901,59.7678 416.5,59.5C 417.209,60.404 418.209,60.7373 419.5,60.5C 420.209,61.404 421.209,61.7373 422.5,61.5C 423.209,62.404 424.209,62.7373 425.5,62.5C 426.209,63.404 427.209,63.7373 428.5,63.5C 429.209,64.404 430.209,64.7373 431.5,64.5C 432.209,65.404 433.209,65.7373 434.5,65.5C 435.209,66.404 436.209,66.7373 437.5,66.5C 437.842,67.3382 438.508,67.6716 439.5,67.5C 440.209,68.404 441.209,68.7373 442.5,68.5C 442.842,69.3382 443.508,69.6716 444.5,69.5C 445.209,70.404 446.209,70.7373 447.5,70.5C 447.842,71.3382 448.508,71.6716 449.5,71.5C 449.842,72.3382 450.508,72.6716 451.5,72.5C 451.842,73.3382 452.508,73.6716 453.5,73.5C 454.209,74.404 455.209,74.7373 456.5,74.5C 456.842,75.3382 457.508,75.6716 458.5,75.5C 458.842,76.3382 459.508,76.6716 460.5,76.5C 460.842,77.3382 461.508,77.6716 462.5,77.5C 462.842,78.3382 463.508,78.6716 464.5,78.5C 464.842,79.3382 465.508,79.6716 466.5,79.5C 466.5,79.8333 466.5,80.1667 466.5,80.5C 376.5,81.8333 286.5,81.8333 196.5,80.5C 213.892,71.4639 231.892,64.1306 250.5,58.5C 254.397,57.9448 258.063,56.9448 261.5,55.5C 274.885,52.7147 288.218,50.3813 301.5,48.5C 316.485,47.6909 331.485,47.3576 346.5,47.5 Z"/></g>
<g><path style="opacity:0.925" fill="#96bdd2" d="M 499.5,61.5 C 500.71,61.9321 501.71,62.5987 502.5,63.5C 500.821,63.7148 499.821,63.0481 499.5,61.5 Z"/></g>
<g><path style="opacity:1" fill="#53bcc8" d="M 196.5,80.5 C 286.5,81.8333 376.5,81.8333 466.5,80.5C 467.167,80.5 467.833,80.5 468.5,80.5C 468.842,81.3382 469.508,81.6716 470.5,81.5C 470.5,82.1667 470.833,82.5 471.5,82.5C 472.209,83.404 473.209,83.7373 474.5,83.5C 474.5,84.1667 474.833,84.5 475.5,84.5C 475.842,85.3382 476.508,85.6716 477.5,85.5C 477.5,86.1667 477.833,86.5 478.5,86.5C 479.209,87.404 480.209,87.7373 481.5,87.5C 481.5,88.1667 481.833,88.5 482.5,88.5C 482.5,89.1667 482.833,89.5 483.5,89.5C 483.842,90.3382 484.508,90.6716 485.5,90.5C 434.504,91.8333 383.171,92.5 331.5,92.5C 279.999,92.5 228.666,92.1667 177.5,91.5C 183.67,87.5808 190.003,83.9141 196.5,80.5 Z"/></g>
<g><path style="opacity:0.925" fill="#72aac5" d="M 130.5,86.5 C 129.089,88.914 127.089,90.5806 124.5,91.5C 125.911,89.086 127.911,87.4194 130.5,86.5 Z"/></g>
<g><path style="opacity:1" fill="#58bbc6" d="M 485.5,90.5 C 485.833,90.5 486.167,90.5 486.5,90.5C 486.5,91.1667 486.833,91.5 487.5,91.5C 487.842,92.3382 488.508,92.6716 489.5,92.5C 489.5,93.1667 489.833,93.5 490.5,93.5C 490.842,94.3382 491.508,94.6716 492.5,94.5C 492.973,95.9063 493.973,96.573 495.5,96.5C 495.973,97.9063 496.973,98.573 498.5,98.5C 498.5,99.1667 498.833,99.5 499.5,99.5C 499.842,100.338 500.508,100.672 501.5,100.5C 501.5,101.167 501.833,101.5 502.5,101.5C 502.842,102.338 503.508,102.672 504.5,102.5C 504.5,103.167 504.833,103.5 505.5,103.5C 505.5,104.167 505.833,104.5 506.5,104.5C 506.842,105.338 507.508,105.672 508.5,105.5C 508.5,106.167 508.833,106.5 509.5,106.5C 509.5,107.167 509.833,107.5 510.5,107.5C 510.842,108.338 511.508,108.672 512.5,108.5C 512.5,109.167 512.833,109.5 513.5,109.5C 513.5,110.167 513.833,110.5 514.5,110.5C 514.973,111.906 515.973,112.573 517.5,112.5C 517.5,113.167 517.833,113.5 518.5,113.5C 518.5,114.167 518.833,114.5 519.5,114.5C 520.167,115.833 521.167,116.833 522.5,117.5C 510.88,119.479 498.88,120.146 486.5,119.5C 483.566,109.806 478.232,101.64 470.5,95C 469.167,94.3333 467.833,94.3333 466.5,95C 464.004,96.6665 461.671,98.4998 459.5,100.5C 361.167,100.5 262.833,100.5 164.5,100.5C 168.535,97.1427 172.868,94.1427 177.5,91.5C 228.666,92.1667 279.999,92.5 331.5,92.5C 383.171,92.5 434.504,91.8333 485.5,90.5 Z"/></g>
<g><path style="opacity:0.89" fill="#73abc5" d="M 124.5,91.5 C 122.761,94.2427 120.427,96.2427 117.5,97.5C 119.239,94.7573 121.573,92.7573 124.5,91.5 Z"/></g>
<g><path style="opacity:1" fill="#fdfdfd" d="M 486.5,119.5 C 488.048,126.117 489.381,132.784 490.5,139.5C 491.302,146.804 491.635,154.138 491.5,161.5C 491.5,166.5 491.5,171.5 491.5,176.5C 489.982,183.293 488.982,190.293 488.5,197.5C 486.4,205.002 485.067,212.669 484.5,220.5C 482.463,227.317 480.63,234.317 479,241.5C 478.333,243.167 478.333,244.833 479,246.5C 491.869,236.787 505.369,228.121 519.5,220.5C 525.812,217.679 532.145,214.845 538.5,212C 545.22,208.965 552.22,207.965 559.5,209C 560.931,209.465 562.097,210.299 563,211.5C 563.497,214.146 563.664,216.813 563.5,219.5C 559.796,227.598 556.462,235.931 553.5,244.5C 550.249,250.001 547.249,255.667 544.5,261.5C 539.257,268.315 534.257,275.315 529.5,282.5C 523.528,288.807 517.528,295.14 511.5,301.5C 502.436,309.904 493.103,317.904 483.5,325.5C 474.28,332.27 465.28,339.27 456.5,346.5C 455.859,352.477 455.359,358.477 455,364.5C 453.89,366.037 452.39,366.703 450.5,366.5C 450.827,361.456 450.494,356.456 449.5,351.5C 441.433,357.189 433.433,362.855 425.5,368.5C 416.947,373.108 407.947,376.608 398.5,379C 389.111,381.093 381.611,378.26 376,370.5C 375.218,367.784 373.884,365.45 372,363.5C 358.43,369.861 346.596,378.528 336.5,389.5C 331.967,392.893 328.634,397.226 326.5,402.5C 324.278,406.277 322.611,410.277 321.5,414.5C 318.568,421.533 316.235,428.866 314.5,436.5C 312.526,442.396 310.859,448.396 309.5,454.5C 306.598,461.322 303.931,468.322 301.5,475.5C 291.69,499.817 276.357,519.984 255.5,536C 241.473,544.899 226.14,550.232 209.5,552C 187.222,553.736 165.222,552.069 143.5,547C 139.862,546.548 137.528,544.714 136.5,541.5C 192.104,545.584 237.271,525.917 272,482.5C 276.142,477.537 279.642,472.204 282.5,466.5C 289.126,456.916 294.46,446.583 298.5,435.5C 302.326,429.033 304.993,422.033 306.5,414.5C 307.964,410.981 308.964,407.314 309.5,403.5C 311.589,399.499 312.922,395.165 313.5,390.5C 315.944,383.176 318.61,375.843 321.5,368.5C 325.336,360.665 330.336,353.665 336.5,347.5C 347.587,339.739 358.92,332.406 370.5,325.5C 374.273,323.779 377.939,321.779 381.5,319.5C 383.086,321.173 383.753,323.173 383.5,325.5C 387.328,336.466 395.161,341.799 407,341.5C 420.396,340.049 431.896,334.716 441.5,325.5C 446.012,323.503 449.845,320.503 453,316.5C 454.335,311.496 455.502,306.496 456.5,301.5C 458.318,298.156 459.318,294.489 459.5,290.5C 460.768,288.095 461.435,285.428 461.5,282.5C 463.768,276.094 465.435,269.427 466.5,262.5C 468.659,256.744 470.326,250.744 471.5,244.5C 472.837,236.49 474.17,228.49 475.5,220.5C 476.628,212.884 477.295,205.217 477.5,197.5C 477.825,189.648 477.492,181.982 476.5,174.5C 476.817,170.298 476.483,166.298 475.5,162.5C 475.07,150.762 471.57,140.096 465,130.5C 460.297,126.169 456.297,126.836 453,132.5C 447.373,141.552 443.206,151.218 440.5,161.5C 438.167,165.513 436.334,169.846 435,174.5C 433.989,175.337 432.822,175.67 431.5,175.5C 431.423,171.038 432.09,166.705 433.5,162.5C 434.628,158.196 435.628,153.862 436.5,149.5C 437.5,146.167 438.5,142.833 439.5,139.5C 442.164,132.838 444.831,126.171 447.5,119.5C 450.736,112.697 454.736,106.363 459.5,100.5C 461.671,98.4998 464.004,96.6665 466.5,95C 467.833,94.3333 469.167,94.3333 470.5,95C 478.232,101.64 483.566,109.806 486.5,119.5 Z"/></g>
<g><path style="opacity:1" fill="#5ab9c3" d="M 164.5,100.5 C 262.833,100.5 361.167,100.5 459.5,100.5C 454.736,106.363 450.736,112.697 447.5,119.5C 344.999,119.833 242.665,119.499 140.5,118.5C 145.821,114.511 150.821,110.178 155.5,105.5C 158.661,104.087 161.661,102.42 164.5,100.5 Z"/></g>
<g><path style="opacity:0.902" fill="#74acc6" d="M 116.5,98.5 C 113.769,102.234 110.436,105.234 106.5,107.5C 109.231,103.766 112.564,100.766 116.5,98.5 Z"/></g>
<g><path style="opacity:0.275" fill="#c9e5eb" d="M 155.5,105.5 C 150.821,110.178 145.821,114.511 140.5,118.5C 140.167,118.5 139.833,118.5 139.5,118.5C 140.96,116.537 142.627,114.704 144.5,113C 147.878,109.985 151.544,107.485 155.5,105.5 Z"/></g>
<g><path style="opacity:0.663" fill="#a1c9da" d="M 93.5,120.5 C 93.573,122.027 92.9063,123.027 91.5,123.5C 91.427,121.973 92.0937,120.973 93.5,120.5 Z"/></g>
<g><path style="opacity:1" fill="#60b7bf" d="M 139.5,118.5 C 139.833,118.5 140.167,118.5 140.5,118.5C 242.665,119.499 344.999,119.833 447.5,119.5C 444.831,126.171 442.164,132.838 439.5,139.5C 332.833,139.5 226.167,139.5 119.5,139.5C 120.833,137.833 122.167,136.167 123.5,134.5C 124.5,132.833 125.833,131.5 127.5,130.5C 131.5,127.167 135.167,123.5 138.5,119.5C 139.167,119.5 139.5,119.167 139.5,118.5 Z"/></g>
<g><path style="opacity:1" fill="#62b8c0" d="M 522.5,117.5 C 522.833,117.5 523.167,117.5 523.5,117.5C 523.5,118.167 523.833,118.5 524.5,118.5C 524.5,119.167 524.833,119.5 525.5,119.5C 525.5,120.167 525.833,120.5 526.5,120.5C 527.911,122.914 529.911,124.581 532.5,125.5C 532.5,126.167 532.833,126.5 533.5,126.5C 533.5,127.167 533.833,127.5 534.5,127.5C 534.5,128.167 534.833,128.5 535.5,128.5C 535.5,129.167 535.833,129.5 536.5,129.5C 536.5,130.167 536.833,130.5 537.5,130.5C 537.5,131.167 537.833,131.5 538.5,131.5C 538.5,132.167 538.833,132.5 539.5,132.5C 539.5,133.167 539.833,133.5 540.5,133.5C 540.5,134.167 540.833,134.5 541.5,134.5C 541.5,135.167 541.833,135.5 542.5,135.5C 542.5,136.167 542.833,136.5 543.5,136.5C 543.5,136.833 543.5,137.167 543.5,137.5C 526.198,139.486 508.532,140.153 490.5,139.5C 489.381,132.784 488.048,126.117 486.5,119.5C 498.88,120.146 510.88,119.479 522.5,117.5 Z"/></g>
<g><path style="opacity:0.655" fill="#a2cada" d="M 571.5,120.5 C 572.906,120.973 573.573,121.973 573.5,123.5C 572.094,123.027 571.427,122.027 571.5,120.5 Z"/></g>
<g><path style="opacity:0.722" fill="#acd7de" d="M 138.5,119.5 C 135.167,123.5 131.5,127.167 127.5,130.5C 130.167,125.833 133.833,122.167 138.5,119.5 Z"/></g>
<g><path style="opacity:0.8" fill="#9ac4d7" d="M 577.5,127.5 C 579.262,128.262 580.262,129.596 580.5,131.5C 578.738,130.738 577.738,129.404 577.5,127.5 Z"/></g>
<g><path style="opacity:0.659" fill="#a2cada" d="M 86.5,128.5 C 86.573,130.027 85.9063,131.027 84.5,131.5C 84.427,129.973 85.0937,128.973 86.5,128.5 Z"/></g>
<g><path style="opacity:0.804" fill="#94c1d4" d="M 82.5,133.5 C 82.2624,135.404 81.2624,136.738 79.5,137.5C 79.7376,135.596 80.7376,134.262 82.5,133.5 Z"/></g>
<g><path style="opacity:0.816" fill="#93c0d4" d="M 582.5,133.5 C 584.262,134.262 585.262,135.596 585.5,137.5C 583.738,136.738 582.738,135.404 582.5,133.5 Z"/></g>
<g><path style="opacity:0.788" fill="#a3d1d9" d="M 123.5,134.5 C 122.167,136.167 120.833,137.833 119.5,139.5C 117.5,141.167 115.5,142.833 113.5,144.5C 115.833,140.167 119.167,136.833 123.5,134.5 Z"/></g>
<g><path style="opacity:1" fill="#65b5bc" d="M 119.5,139.5 C 226.167,139.5 332.833,139.5 439.5,139.5C 438.5,142.833 437.5,146.167 436.5,149.5C 327.495,150.165 218.828,149.498 110.5,147.5C 111.833,146.833 112.833,145.833 113.5,144.5C 115.5,142.833 117.5,141.167 119.5,139.5 Z"/></g>
<g><path style="opacity:0.69" fill="#a0c9da" d="M 74.5,143.5 C 74.573,145.027 73.9063,146.027 72.5,146.5C 72.427,144.973 73.0937,143.973 74.5,143.5 Z"/></g>
<g><path style="opacity:0.467" fill="#a2cbdb" d="M 590.5,143.5 C 591.906,143.973 592.573,144.973 592.5,146.5C 591.094,146.027 590.427,145.027 590.5,143.5 Z"/></g>
<g><path style="opacity:1" fill="#68b4ba" d="M 110.5,147.5 C 218.828,149.498 327.495,150.165 436.5,149.5C 435.628,153.862 434.628,158.196 433.5,162.5C 321.999,162.833 210.665,162.499 99.5,161.5C 102.519,156.202 106.186,151.536 110.5,147.5 Z"/></g>
<g><path style="opacity:1" fill="#69b5bb" d="M 475.5,162.5 C 463.655,162.828 451.988,162.495 440.5,161.5C 443.206,151.218 447.373,141.552 453,132.5C 456.297,126.836 460.297,126.169 465,130.5C 471.57,140.096 475.07,150.762 475.5,162.5 Z"/></g>
<g><path style="opacity:1" fill="#68b4bb" d="M 543.5,137.5 C 543.833,137.5 544.167,137.5 544.5,137.5C 544.5,138.167 544.833,138.5 545.5,138.5C 545.5,139.167 545.833,139.5 546.5,139.5C 547.419,142.089 549.086,144.089 551.5,145.5C 551.5,146.167 551.833,146.5 552.5,146.5C 552.5,147.167 552.833,147.5 553.5,147.5C 553.5,148.167 553.833,148.5 554.5,148.5C 554.738,150.404 555.738,151.738 557.5,152.5C 557.5,153.167 557.833,153.5 558.5,153.5C 558.5,154.167 558.833,154.5 559.5,154.5C 560.136,156.795 561.469,158.461 563.5,159.5C 563.5,160.167 563.5,160.833 563.5,161.5C 539.598,162.827 515.598,162.827 491.5,161.5C 491.635,154.138 491.302,146.804 490.5,139.5C 508.532,140.153 526.198,139.486 543.5,137.5 Z"/></g>
<g><path style="opacity:1" fill="#6db2b7" d="M 99.5,161.5 C 210.665,162.499 321.999,162.833 433.5,162.5C 432.09,166.705 431.423,171.038 431.5,175.5C 432.822,175.67 433.989,175.337 435,174.5C 436.334,169.846 438.167,165.513 440.5,161.5C 451.988,162.495 463.655,162.828 475.5,162.5C 476.483,166.298 476.817,170.298 476.5,174.5C 476.5,176.833 476.5,179.167 476.5,181.5C 434.167,181.5 391.833,181.5 349.5,181.5C 349.126,179.05 347.626,178.05 345,178.5C 341.688,179.074 338.522,180.074 335.5,181.5C 252.16,182.164 169.16,181.497 86.5,179.5C 90.0908,172.918 94.4242,166.918 99.5,161.5 Z"/></g>
<g><path style="opacity:1" fill="#6db2b7" d="M 491.5,161.5 C 515.598,162.827 539.598,162.827 563.5,161.5C 564.167,161.833 564.833,162.167 565.5,162.5C 565.5,163.167 565.833,163.5 566.5,163.5C 566.427,165.027 567.094,166.027 568.5,166.5C 568.5,167.167 568.833,167.5 569.5,167.5C 569.66,169.153 570.326,170.486 571.5,171.5C 571.833,172.5 572.5,173.167 573.5,173.5C 573.427,175.027 574.094,176.027 575.5,176.5C 575.427,178.027 576.094,179.027 577.5,179.5C 577.5,180.167 577.5,180.833 577.5,181.5C 548.833,181.5 520.167,181.5 491.5,181.5C 491.5,179.833 491.5,178.167 491.5,176.5C 491.5,171.5 491.5,166.5 491.5,161.5 Z"/></g>
<g><path style="opacity:0.392" fill="#a6cddd" d="M 57.5,168.5 C 57.573,170.027 56.9063,171.027 55.5,171.5C 55.427,169.973 56.0937,168.973 57.5,168.5 Z"/></g>
<g><path style="opacity:0.369" fill="#a9cedd" d="M 607.5,168.5 C 608.906,168.973 609.573,169.973 609.5,171.5C 608.094,171.027 607.427,170.027 607.5,168.5 Z"/></g>
<g><path style="opacity:0.365" fill="#a8cddd" d="M 54.5,173.5 C 54.573,175.027 53.9063,176.027 52.5,176.5C 52.427,174.973 53.0937,173.973 54.5,173.5 Z"/></g>
<g><path style="opacity:0.345" fill="#abcfde" d="M 610.5,173.5 C 611.906,173.973 612.573,174.973 612.5,176.5C 611.094,176.027 610.427,175.027 610.5,173.5 Z"/></g>
<g><path style="opacity:1" fill="#fcfcfc" d="M 349.5,181.5 C 349.174,184.311 348.341,186.978 347,189.5C 344.628,191.703 342.461,194.037 340.5,196.5C 335.836,200.996 331.002,205.33 326,209.5C 325.501,213.152 325.335,216.818 325.5,220.5C 326.277,228.488 326.943,236.488 327.5,244.5C 327.923,247.647 328.256,250.814 328.5,254C 328.697,256.824 328.031,259.324 326.5,261.5C 325.185,262.476 323.852,263.476 322.5,264.5C 321.818,263.757 321.151,263.091 320.5,262.5C 316.548,250.142 311.714,238.142 306,226.5C 296.292,235.21 286.292,243.543 276,251.5C 275.505,253.473 275.338,255.473 275.5,257.5C 274.677,260.977 274.177,264.644 274,268.5C 273.398,271.603 271.565,273.603 268.5,274.5C 267.236,271.21 266.07,267.876 265,264.5C 264.059,262.939 262.892,261.605 261.5,260.5C 253.514,266.82 246.181,273.82 239.5,281.5C 236.862,284.474 234.195,287.474 231.5,290.5C 228.152,293.851 225.152,297.518 222.5,301.5C 216.682,308.986 211.682,316.986 207.5,325.5C 203.072,332.019 199.406,339.019 196.5,346.5C 192.93,353.407 190.264,360.74 188.5,368.5C 187.181,372.084 186.181,375.75 185.5,379.5C 184.833,379.5 184.5,379.167 184.5,378.5C 186.684,367.613 189.684,356.946 193.5,346.5C 197.072,339.686 200.406,332.686 203.5,325.5C 207.901,317.703 212.568,310.036 217.5,302.5C 222.469,295.857 227.469,289.19 232.5,282.5C 238.842,276.157 244.842,269.491 250.5,262.5C 253.563,260.949 256.229,258.782 258.5,256C 254.127,252.814 249.46,250.147 244.5,248C 245.305,246.887 245.972,245.721 246.5,244.5C 254.192,243.965 261.859,243.132 269.5,242C 276.631,234.606 283.965,227.439 291.5,220.5C 293.148,219.19 294.814,217.857 296.5,216.5C 294.025,213.759 291.025,211.759 287.5,210.5C 279.328,205.58 270.995,200.913 262.5,196.5C 261.683,194.692 262.35,193.192 264.5,192C 266.534,190.994 268.7,190.494 271,190.5C 286.163,193.72 301.33,196.554 316.5,199C 322.907,193.15 329.24,187.317 335.5,181.5C 338.522,180.074 341.688,179.074 345,178.5C 347.626,178.05 349.126,179.05 349.5,181.5 Z"/></g>
<g><path style="opacity:1" fill="#73afb3" d="M 86.5,179.5 C 169.16,181.497 252.16,182.164 335.5,181.5C 329.24,187.317 322.907,193.15 316.5,199C 301.33,196.554 286.163,193.72 271,190.5C 268.7,190.494 266.534,190.994 264.5,192C 262.35,193.192 261.683,194.692 262.5,196.5C 200.5,197.833 138.5,197.833 76.5,196.5C 79.0804,190.332 82.4137,184.665 86.5,179.5 Z"/></g>
<g><path style="opacity:1" fill="#73afb3" d="M 476.5,174.5 C 477.492,181.982 477.825,189.648 477.5,197.5C 431.664,197.832 385.997,197.499 340.5,196.5C 342.461,194.037 344.628,191.703 347,189.5C 348.341,186.978 349.174,184.311 349.5,181.5C 391.833,181.5 434.167,181.5 476.5,181.5C 476.5,179.167 476.5,176.833 476.5,174.5 Z"/></g>
<g><path style="opacity:1" fill="#73afb3" d="M 491.5,176.5 C 491.5,178.167 491.5,179.833 491.5,181.5C 520.167,181.5 548.833,181.5 577.5,181.5C 578.167,181.833 578.833,182.167 579.5,182.5C 579.66,184.153 580.326,185.486 581.5,186.5C 582.026,188.23 583.026,189.564 584.5,190.5C 585.167,192.5 585.833,194.5 586.5,196.5C 554.004,197.498 521.338,197.832 488.5,197.5C 488.982,190.293 489.982,183.293 491.5,176.5 Z"/></g>
<g><path style="opacity:1" fill="#78adb0" d="M 76.5,196.5 C 138.5,197.833 200.5,197.833 262.5,196.5C 270.995,200.913 279.328,205.58 287.5,210.5C 214.669,211.499 141.669,211.833 68.5,211.5C 70.4068,206.016 73.0734,201.016 76.5,196.5 Z"/></g>
<g><path style="opacity:1" fill="#78adaf" d="M 340.5,196.5 C 385.997,197.499 431.664,197.832 477.5,197.5C 477.295,205.217 476.628,212.884 475.5,220.5C 425.5,220.5 375.5,220.5 325.5,220.5C 325.335,216.818 325.501,213.152 326,209.5C 331.002,205.33 335.836,200.996 340.5,196.5 Z"/></g>
<g><path style="opacity:1" fill="#79adaf" d="M 586.5,196.5 C 587.167,196.833 587.833,197.167 588.5,197.5C 588.328,198.492 588.662,199.158 589.5,199.5C 592.5,206.167 595.5,212.833 598.5,219.5C 586.833,220.833 575.167,220.833 563.5,219.5C 563.664,216.813 563.497,214.146 563,211.5C 562.097,210.299 560.931,209.465 559.5,209C 552.22,207.965 545.22,208.965 538.5,212C 532.145,214.845 525.812,217.679 519.5,220.5C 507.833,220.5 496.167,220.5 484.5,220.5C 485.067,212.669 486.4,205.002 488.5,197.5C 521.338,197.832 554.004,197.498 586.5,196.5 Z"/></g>
<g><path style="opacity:1" fill="#7bacad" d="M 287.5,210.5 C 291.025,211.759 294.025,213.759 296.5,216.5C 294.814,217.857 293.148,219.19 291.5,220.5C 215.429,220.17 139.429,220.503 63.5,221.5C 64.6589,217.849 66.3256,214.515 68.5,211.5C 141.669,211.833 214.669,211.499 287.5,210.5 Z"/></g>
<g><path style="opacity:1" fill="#80aaaa" d="M 291.5,220.5 C 283.965,227.439 276.631,234.606 269.5,242C 261.859,243.132 254.192,243.965 246.5,244.5C 182.5,244.5 118.5,244.5 54.5,244.5C 56.9133,236.592 59.9133,228.925 63.5,221.5C 139.429,220.503 215.429,220.17 291.5,220.5 Z"/></g>
<g><path style="opacity:1" fill="#80aaaa" d="M 325.5,220.5 C 375.5,220.5 425.5,220.5 475.5,220.5C 474.17,228.49 472.837,236.49 471.5,244.5C 423.5,244.5 375.5,244.5 327.5,244.5C 326.943,236.488 326.277,228.488 325.5,220.5 Z"/></g>
<g><path style="opacity:1" fill="#81acac" d="M 484.5,220.5 C 496.167,220.5 507.833,220.5 519.5,220.5C 505.369,228.121 491.869,236.787 479,246.5C 478.333,244.833 478.333,243.167 479,241.5C 480.63,234.317 482.463,227.317 484.5,220.5 Z"/></g>
<g><path style="opacity:1" fill="#80aaaa" d="M 563.5,219.5 C 575.167,220.833 586.833,220.833 598.5,219.5C 598.833,219.5 599.167,219.5 599.5,219.5C 599.707,222.241 600.707,224.574 602.5,226.5C 603.314,230.116 604.648,233.449 606.5,236.5C 606.963,239.221 607.629,241.888 608.5,244.5C 590.167,244.5 571.833,244.5 553.5,244.5C 556.462,235.931 559.796,227.598 563.5,219.5 Z"/></g>
<g><path style="opacity:1" fill="#86a7a5" d="M 54.5,244.5 C 118.5,244.5 182.5,244.5 246.5,244.5C 245.972,245.721 245.305,246.887 244.5,248C 249.46,250.147 254.127,252.814 258.5,256C 256.229,258.782 253.563,260.949 250.5,262.5C 183.5,262.5 116.5,262.5 49.5,262.5C 49.7373,263.791 49.404,264.791 48.5,265.5C 49.7246,258.267 51.7246,251.267 54.5,244.5 Z"/></g>
<g><path style="opacity:1" fill="#87a8a7" d="M 320.5,262.5 C 305.5,262.5 290.5,262.5 275.5,262.5C 275.5,260.833 275.5,259.167 275.5,257.5C 275.338,255.473 275.505,253.473 276,251.5C 286.292,243.543 296.292,235.21 306,226.5C 311.714,238.142 316.548,250.142 320.5,262.5 Z"/></g>
<g><path style="opacity:1" fill="#86a7a5" d="M 327.5,244.5 C 375.5,244.5 423.5,244.5 471.5,244.5C 470.326,250.744 468.659,256.744 466.5,262.5C 419.664,262.832 372.997,262.499 326.5,261.5C 328.031,259.324 328.697,256.824 328.5,254C 328.256,250.814 327.923,247.647 327.5,244.5 Z"/></g>
<g><path style="opacity:1" fill="#88a8a6" d="M 528.5,262.5 C 516.988,262.828 505.654,262.495 494.5,261.5C 506.771,252.863 520.104,246.03 534.5,241C 537.817,240.502 541.15,240.335 544.5,240.5C 544.751,244.331 543.584,247.664 541,250.5C 536.964,254.704 532.798,258.704 528.5,262.5 Z"/></g>
<g><path style="opacity:1" fill="#87a7a5" d="M 553.5,244.5 C 571.833,244.5 590.167,244.5 608.5,244.5C 610.943,249.5 612.61,254.834 613.5,260.5C 602.353,261.832 590.853,262.499 579,262.5C 567.328,262.5 555.828,262.167 544.5,261.5C 547.249,255.667 550.249,250.001 553.5,244.5 Z"/></g>
<g><path style="opacity:0.929" fill="#7bb1ca" d="M 21.5,249.5 C 21.5905,252.152 20.9238,254.485 19.5,256.5C 19.4095,253.848 20.0762,251.515 21.5,249.5 Z"/></g>
<g><path style="opacity:0.922" fill="#7eb3cb" d="M 643.5,249.5 C 644.924,251.515 645.59,253.848 645.5,256.5C 644.076,254.485 643.41,252.152 643.5,249.5 Z"/></g>
<g><path style="opacity:1" fill="#8ca4a1" d="M 250.5,262.5 C 244.842,269.491 238.842,276.157 232.5,282.5C 169.833,282.5 107.167,282.5 44.5,282.5C 45.0873,276.544 46.4207,270.878 48.5,265.5C 49.404,264.791 49.7373,263.791 49.5,262.5C 116.5,262.5 183.5,262.5 250.5,262.5 Z"/></g>
<g><path style="opacity:1" fill="#8da4a1" d="M 275.5,257.5 C 275.5,259.167 275.5,260.833 275.5,262.5C 290.5,262.5 305.5,262.5 320.5,262.5C 321.151,263.091 321.818,263.757 322.5,264.5C 323.852,263.476 325.185,262.476 326.5,261.5C 372.997,262.499 419.664,262.832 466.5,262.5C 465.435,269.427 463.768,276.094 461.5,282.5C 387.331,282.833 313.331,282.499 239.5,281.5C 246.181,273.82 253.514,266.82 261.5,260.5C 262.892,261.605 264.059,262.939 265,264.5C 266.07,267.876 267.236,271.21 268.5,274.5C 271.565,273.603 273.398,271.603 274,268.5C 274.177,264.644 274.677,260.977 275.5,257.5 Z"/></g>
<g><path style="opacity:1" fill="#8da5a2" d="M 494.5,261.5 C 505.654,262.495 516.988,262.828 528.5,262.5C 519.81,269.851 510.81,276.851 501.5,283.5C 490.833,282.833 480.167,282.167 469.5,281.5C 476.655,273.344 484.988,266.677 494.5,261.5 Z"/></g>
<g><path style="opacity:1" fill="#8da4a1" d="M 613.5,260.5 C 616.106,267.585 618.106,274.918 619.5,282.5C 589.5,282.5 559.5,282.5 529.5,282.5C 534.257,275.315 539.257,268.315 544.5,261.5C 555.828,262.167 567.328,262.5 579,262.5C 590.853,262.499 602.353,261.832 613.5,260.5 Z"/></g>
<g><path style="opacity:1" fill="#90a39e" d="M 239.5,281.5 C 313.331,282.499 387.331,282.833 461.5,282.5C 461.435,285.428 460.768,288.095 459.5,290.5C 383.5,290.5 307.5,290.5 231.5,290.5C 234.195,287.474 236.862,284.474 239.5,281.5 Z"/></g>
<g><path style="opacity:1" fill="#92a29d" d="M 44.5,282.5 C 107.167,282.5 169.833,282.5 232.5,282.5C 227.469,289.19 222.469,295.857 217.5,302.5C 162.5,301.167 107.5,301.167 52.5,302.5C 49.7007,300.262 46.7007,298.262 43.5,296.5C 42.8182,297.243 42.1515,297.909 41.5,298.5C 42.0869,292.963 43.0869,287.63 44.5,282.5 Z"/></g>
<g><path style="opacity:1" fill="#93a19d" d="M 231.5,290.5 C 307.5,290.5 383.5,290.5 459.5,290.5C 459.318,294.489 458.318,298.156 456.5,301.5C 378.5,301.5 300.5,301.5 222.5,301.5C 225.152,297.518 228.152,293.851 231.5,290.5 Z"/></g>
<g><path style="opacity:1" fill="#95a49f" d="M 469.5,281.5 C 480.167,282.167 490.833,282.833 501.5,283.5C 488.275,292.366 475.109,301.366 462,310.5C 461.333,309.167 461.333,307.833 462,306.5C 464.45,298.024 466.95,289.691 469.5,281.5 Z"/></g>
<g><path style="opacity:1" fill="#93a29d" d="M 529.5,282.5 C 559.5,282.5 589.5,282.5 619.5,282.5C 620.608,288.815 621.608,295.148 622.5,301.5C 585.5,301.5 548.5,301.5 511.5,301.5C 517.528,295.14 523.528,288.807 529.5,282.5 Z"/></g>
<g><path style="opacity:1" fill="#0276a1" d="M 52.5,302.5 C 61.6199,308.949 68.9533,316.949 74.5,326.5C 78.084,332.994 81.084,339.661 83.5,346.5C 83.5,348.167 83.5,349.833 83.5,351.5C 101.818,351.325 115.818,358.991 125.5,374.5C 139.691,362.394 155.358,360.227 172.5,368C 177.311,370.649 181.311,374.149 184.5,378.5C 184.5,379.167 184.833,379.5 185.5,379.5C 187.167,382.833 188.833,386.167 190.5,389.5C 191.91,393.705 192.577,398.038 192.5,402.5C 192.024,405.927 192.024,409.26 192.5,412.5C 207.247,407.773 221.58,408.773 235.5,415.5C 244.194,420.861 251.194,427.861 256.5,436.5C 260.931,445.639 262.597,455.305 261.5,465.5C 268.543,465.28 275.543,465.614 282.5,466.5C 279.642,472.204 276.142,477.537 272,482.5C 237.271,525.917 192.104,545.584 136.5,541.5C 137.528,544.714 139.862,546.548 143.5,547C 165.222,552.069 187.222,553.736 209.5,552C 226.14,550.232 241.473,544.899 255.5,536C 276.357,519.984 291.69,499.817 301.5,475.5C 303.772,476.441 305.772,477.774 307.5,479.5C 310.831,483 313.998,486.666 317,490.5C 318.678,494.532 320.844,498.199 323.5,501.5C 337.585,490.145 353.585,485.978 371.5,489C 373.05,485.402 374.716,481.902 376.5,478.5C 389.442,463.348 405.109,459.682 423.5,467.5C 426.575,465.934 429.242,463.767 431.5,461C 439.952,456.059 448.785,455.226 458,458.5C 458.791,457.255 459.291,455.922 459.5,454.5C 462.989,447.666 467.656,441.666 473.5,436.5C 488.144,426.132 504.144,423.632 521.5,429C 534.607,434.609 544.274,443.775 550.5,456.5C 557.667,451.374 565.667,449.041 574.5,449.5C 574.457,446.09 574.957,442.757 576,439.5C 578.179,434.479 580.346,429.479 582.5,424.5C 585.516,421.48 588.183,418.146 590.5,414.5C 593.225,413.287 595.559,411.454 597.5,409C 600.914,406.626 604.581,404.793 608.5,403.5C 611.63,401.977 614.963,401.311 618.5,401.5C 596.405,497.543 540.738,566.376 451.5,608C 386.458,635.436 319.791,640.102 251.5,622C 149.719,589.552 82.5523,522.386 50,420.5C 39.4284,380.409 36.595,339.742 41.5,298.5C 42.1515,297.909 42.8182,297.243 43.5,296.5C 46.7007,298.262 49.7007,300.262 52.5,302.5 Z"/></g>
<g><path style="opacity:1" fill="#989f99" d="M 52.5,302.5 C 107.5,301.167 162.5,301.167 217.5,302.5C 212.568,310.036 207.901,317.703 203.5,325.5C 160.33,325.168 117.33,325.501 74.5,326.5C 68.9533,316.949 61.6199,308.949 52.5,302.5 Z"/></g>
<g><path style="opacity:1" fill="#999f99" d="M 222.5,301.5 C 300.5,301.5 378.5,301.5 456.5,301.5C 455.502,306.496 454.335,311.496 453,316.5C 449.845,320.503 446.012,323.503 441.5,325.5C 422.167,325.5 402.833,325.5 383.5,325.5C 383.753,323.173 383.086,321.173 381.5,319.5C 377.939,321.779 374.273,323.779 370.5,325.5C 316.167,325.5 261.833,325.5 207.5,325.5C 211.682,316.986 216.682,308.986 222.5,301.5 Z"/></g>
<g><path style="opacity:1" fill="#999f99" d="M 511.5,301.5 C 548.5,301.5 585.5,301.5 622.5,301.5C 623.313,308.484 623.98,315.484 624.5,322.5C 624.5,323.5 624.5,324.5 624.5,325.5C 577.5,325.5 530.5,325.5 483.5,325.5C 493.103,317.904 502.436,309.904 511.5,301.5 Z"/></g>
<g><path style="opacity:1" fill="#9f9d94" d="M 203.5,325.5 C 200.406,332.686 197.072,339.686 193.5,346.5C 156.833,346.5 120.167,346.5 83.5,346.5C 81.084,339.661 78.084,332.994 74.5,326.5C 117.33,325.501 160.33,325.168 203.5,325.5 Z"/></g>
<g><path style="opacity:1" fill="#9f9d95" d="M 207.5,325.5 C 261.833,325.5 316.167,325.5 370.5,325.5C 358.92,332.406 347.587,339.739 336.5,347.5C 290.003,346.501 243.336,346.168 196.5,346.5C 199.406,339.019 203.072,332.019 207.5,325.5 Z"/></g>
<g><path style="opacity:1" fill="#a09e97" d="M 383.5,325.5 C 402.833,325.5 422.167,325.5 441.5,325.5C 431.896,334.716 420.396,340.049 407,341.5C 395.161,341.799 387.328,336.466 383.5,325.5 Z"/></g>
<g><path style="opacity:1" fill="#9f9d95" d="M 624.5,322.5 C 625.833,334.167 625.833,345.833 624.5,357.5C 624.5,353.833 624.5,350.167 624.5,346.5C 568.5,346.5 512.5,346.5 456.5,346.5C 465.28,339.27 474.28,332.27 483.5,325.5C 530.5,325.5 577.5,325.5 624.5,325.5C 624.5,324.5 624.5,323.5 624.5,322.5 Z"/></g>
<g><path style="opacity:1" fill="#a49a91" d="M 83.5,346.5 C 120.167,346.5 156.833,346.5 193.5,346.5C 189.684,356.946 186.684,367.613 184.5,378.5C 181.311,374.149 177.311,370.649 172.5,368C 155.358,360.227 139.691,362.394 125.5,374.5C 115.818,358.991 101.818,351.325 83.5,351.5C 83.5,349.833 83.5,348.167 83.5,346.5 Z"/></g>
<g><path style="opacity:1" fill="#a59a91" d="M 196.5,346.5 C 243.336,346.168 290.003,346.501 336.5,347.5C 330.336,353.665 325.336,360.665 321.5,368.5C 277.167,368.5 232.833,368.5 188.5,368.5C 190.264,360.74 192.93,353.407 196.5,346.5 Z"/></g>
<g><path style="opacity:1" fill="#a59a91" d="M 456.5,346.5 C 512.5,346.5 568.5,346.5 624.5,346.5C 624.5,350.167 624.5,353.833 624.5,357.5C 624.819,362.363 624.486,367.03 623.5,371.5C 623.5,370.5 623.5,369.5 623.5,368.5C 557.5,368.5 491.5,368.5 425.5,368.5C 433.433,362.855 441.433,357.189 449.5,351.5C 450.494,356.456 450.827,361.456 450.5,366.5C 452.39,366.703 453.89,366.037 455,364.5C 455.359,358.477 455.859,352.477 456.5,346.5 Z"/></g>
<g><path style="opacity:1" fill="#ab988c" d="M 188.5,368.5 C 232.833,368.5 277.167,368.5 321.5,368.5C 318.61,375.843 315.944,383.176 313.5,390.5C 272.67,389.501 231.67,389.168 190.5,389.5C 188.833,386.167 187.167,382.833 185.5,379.5C 186.181,375.75 187.181,372.084 188.5,368.5 Z"/></g>
<g><path style="opacity:1" fill="#ab988c" d="M 425.5,368.5 C 491.5,368.5 557.5,368.5 623.5,368.5C 623.5,369.5 623.5,370.5 623.5,371.5C 622.978,378.372 621.978,385.038 620.5,391.5C 526.173,389.502 431.506,388.836 336.5,389.5C 346.596,378.528 358.43,369.861 372,363.5C 373.884,365.45 375.218,367.784 376,370.5C 381.611,378.26 389.111,381.093 398.5,379C 407.947,376.608 416.947,373.108 425.5,368.5 Z"/></g>
<g><path style="opacity:1" fill="#b09689" d="M 190.5,389.5 C 231.67,389.168 272.67,389.501 313.5,390.5C 312.922,395.165 311.589,399.499 309.5,403.5C 270.67,402.501 231.67,402.168 192.5,402.5C 192.577,398.038 191.91,393.705 190.5,389.5 Z"/></g>
<g><path style="opacity:1" fill="#b09689" d="M 336.5,389.5 C 431.506,388.836 526.173,389.502 620.5,391.5C 620.247,395.04 619.581,398.373 618.5,401.5C 614.963,401.311 611.63,401.977 608.5,403.5C 514.668,402.501 420.668,402.167 326.5,402.5C 328.634,397.226 331.967,392.893 336.5,389.5 Z"/></g>
<g><path style="opacity:1" fill="#b39486" d="M 192.5,402.5 C 231.67,402.168 270.67,402.501 309.5,403.5C 308.964,407.314 307.964,410.981 306.5,414.5C 282.661,414.169 258.994,414.502 235.5,415.5C 221.58,408.773 207.247,407.773 192.5,412.5C 192.024,409.26 192.024,405.927 192.5,402.5 Z"/></g>
<g><path style="opacity:1" fill="#b39486" d="M 326.5,402.5 C 420.668,402.167 514.668,402.501 608.5,403.5C 604.581,404.793 600.914,406.626 597.5,409C 595.559,411.454 593.225,413.287 590.5,414.5C 500.833,414.5 411.167,414.5 321.5,414.5C 322.611,410.277 324.278,406.277 326.5,402.5 Z"/></g>
<g><path style="opacity:1" fill="#b79384" d="M 321.5,414.5 C 411.167,414.5 500.833,414.5 590.5,414.5C 588.183,418.146 585.516,421.48 582.5,424.5C 519.167,424.5 455.833,424.5 392.5,424.5C 393.141,421.779 393.641,419.112 394,416.5C 381.943,423.396 369.776,430.062 357.5,436.5C 343.265,435.178 328.931,435.178 314.5,436.5C 316.235,428.866 318.568,421.533 321.5,414.5 Z"/></g>
<g><path style="opacity:1" fill="#fdfcfc" d="M 392.5,424.5 C 390.971,428.421 389.637,432.421 388.5,436.5C 384.86,444.471 379.194,450.471 371.5,454.5C 363.194,459.322 354.861,464.155 346.5,469C 343.029,471.072 339.362,472.572 335.5,473.5C 336.295,466.782 338.295,460.449 341.5,454.5C 344.007,450.363 346.34,446.029 348.5,441.5C 351.366,439.568 354.366,437.901 357.5,436.5C 369.776,430.062 381.943,423.396 394,416.5C 393.641,419.112 393.141,421.779 392.5,424.5 Z"/></g>
<g><path style="opacity:1" fill="#b89283" d="M 235.5,415.5 C 258.994,414.502 282.661,414.169 306.5,414.5C 304.993,422.033 302.326,429.033 298.5,435.5C 284.323,435.171 270.323,435.504 256.5,436.5C 251.194,427.861 244.194,420.861 235.5,415.5 Z"/></g>
<g><path style="opacity:1" fill="#b99282" d="M 392.5,424.5 C 455.833,424.5 519.167,424.5 582.5,424.5C 580.346,429.479 578.179,434.479 576,439.5C 574.957,442.757 574.457,446.09 574.5,449.5C 565.667,449.041 557.667,451.374 550.5,456.5C 544.274,443.775 534.607,434.609 521.5,429C 504.144,423.632 488.144,426.132 473.5,436.5C 445.264,435.172 416.931,435.172 388.5,436.5C 389.637,432.421 390.971,428.421 392.5,424.5 Z"/></g>
<g><path style="opacity:1" fill="#be907f" d="M 298.5,435.5 C 294.46,446.583 289.126,456.916 282.5,466.5C 275.543,465.614 268.543,465.28 261.5,465.5C 262.597,455.305 260.931,445.639 256.5,436.5C 270.323,435.504 284.323,435.171 298.5,435.5 Z"/></g>
<g><path style="opacity:1" fill="#be9180" d="M 357.5,436.5 C 354.366,437.901 351.366,439.568 348.5,441.5C 346.34,446.029 344.007,450.363 341.5,454.5C 330.833,454.5 320.167,454.5 309.5,454.5C 310.859,448.396 312.526,442.396 314.5,436.5C 328.931,435.178 343.265,435.178 357.5,436.5 Z"/></g>
<g><path style="opacity:1" fill="#be907f" d="M 473.5,436.5 C 467.656,441.666 462.989,447.666 459.5,454.5C 430.167,454.5 400.833,454.5 371.5,454.5C 379.194,450.471 384.86,444.471 388.5,436.5C 416.931,435.172 445.264,435.172 473.5,436.5 Z"/></g>
<g><path style="opacity:1" fill="#c38e7c" d="M 309.5,454.5 C 320.167,454.5 330.833,454.5 341.5,454.5C 338.295,460.449 336.295,466.782 335.5,473.5C 339.362,472.572 343.029,471.072 346.5,469C 354.861,464.155 363.194,459.322 371.5,454.5C 400.833,454.5 430.167,454.5 459.5,454.5C 459.291,455.922 458.791,457.255 458,458.5C 448.785,455.226 439.952,456.059 431.5,461C 429.242,463.767 426.575,465.934 423.5,467.5C 405.109,459.682 389.442,463.348 376.5,478.5C 353.327,478.169 330.327,478.502 307.5,479.5C 305.772,477.774 303.772,476.441 301.5,475.5C 303.931,468.322 306.598,461.322 309.5,454.5 Z"/></g>
<g><path style="opacity:1" fill="#c88b77" d="M 376.5,478.5 C 374.716,481.902 373.05,485.402 371.5,489C 353.585,485.978 337.585,490.145 323.5,501.5C 320.844,498.199 318.678,494.532 317,490.5C 313.998,486.666 310.831,483 307.5,479.5C 330.327,478.502 353.327,478.169 376.5,478.5 Z"/></g>
<g><path style="opacity:1" fill="#f4f9fb" d="M 287.5,572.5 C 293.833,572.5 300.167,572.5 306.5,572.5C 306.5,573.5 306.5,574.5 306.5,575.5C 303.833,575.5 301.167,575.5 298.5,575.5C 298.5,582.167 298.5,588.833 298.5,595.5C 297.5,595.5 296.5,595.5 295.5,595.5C 295.5,588.833 295.5,582.167 295.5,575.5C 292.833,575.5 290.167,575.5 287.5,575.5C 287.5,574.5 287.5,573.5 287.5,572.5 Z"/></g>
<g><path style="opacity:1" fill="#f7fafb" d="M 323.5,572.5 C 320.109,574.125 316.442,575.125 312.5,575.5C 312.5,577.5 312.5,579.5 312.5,581.5C 316.167,581.5 319.833,581.5 323.5,581.5C 323.5,582.5 323.5,583.5 323.5,584.5C 319.833,584.5 316.167,584.5 312.5,584.5C 312.5,587.167 312.5,589.833 312.5,592.5C 316.442,592.875 320.109,593.875 323.5,595.5C 318.833,595.5 314.167,595.5 309.5,595.5C 309.5,587.833 309.5,580.167 309.5,572.5C 314.167,572.5 318.833,572.5 323.5,572.5 Z"/></g>
<g><path style="opacity:1" fill="#f7fafb" d="M 343.5,572.5 C 340.109,574.125 336.442,575.125 332.5,575.5C 332.5,577.5 332.5,579.5 332.5,581.5C 336.167,581.5 339.833,581.5 343.5,581.5C 343.5,582.5 343.5,583.5 343.5,584.5C 339.833,584.5 336.167,584.5 332.5,584.5C 332.5,587.167 332.5,589.833 332.5,592.5C 336.442,592.875 340.109,593.875 343.5,595.5C 338.833,595.5 334.167,595.5 329.5,595.5C 329.5,587.833 329.5,580.167 329.5,572.5C 334.167,572.5 338.833,572.5 343.5,572.5 Z"/></g>
<g><path style="opacity:1" fill="#edf5f8" d="M 349.5,572.5 C 353.182,572.335 356.848,572.501 360.5,573C 365.833,577 365.833,581 360.5,585C 363.111,587.708 365.111,590.875 366.5,594.5C 365.5,595.833 364.5,595.833 363.5,594.5C 362.211,591.42 360.545,588.586 358.5,586C 356.527,585.505 354.527,585.338 352.5,585.5C 352.5,588.833 352.5,592.167 352.5,595.5C 351.5,595.5 350.5,595.5 349.5,595.5C 349.5,587.833 349.5,580.167 349.5,572.5 Z"/></g>
<g><path style="opacity:1" fill="#f4f9fa" d="M 380.5,572.5 C 381.5,572.5 382.5,572.5 383.5,572.5C 383.5,579.167 383.5,585.833 383.5,592.5C 387.167,592.5 390.833,592.5 394.5,592.5C 394.5,593.5 394.5,594.5 394.5,595.5C 389.833,595.5 385.167,595.5 380.5,595.5C 380.5,587.833 380.5,580.167 380.5,572.5 Z"/></g>
<g><path style="opacity:1" fill="#f0f7f9" d="M 390.5,573.5 C 391.708,572.218 393.042,572.218 394.5,573.5C 396.138,576.304 397.971,578.971 400,581.5C 402.029,578.971 403.862,576.304 405.5,573.5C 406.723,572.386 408.056,572.219 409.5,573C 406.877,576.412 404.377,579.912 402,583.5C 401.501,587.486 401.334,591.486 401.5,595.5C 400.5,595.5 399.5,595.5 398.5,595.5C 398.666,591.486 398.499,587.486 398,583.5C 395.723,579.92 393.223,576.586 390.5,573.5 Z"/></g>
<g><path style="opacity:1" fill="#a0cbdb" d="M 323.5,572.5 C 324.404,573.209 324.737,574.209 324.5,575.5C 320.5,575.5 316.5,575.5 312.5,575.5C 316.442,575.125 320.109,574.125 323.5,572.5 Z"/></g>
<g><path style="opacity:1" fill="#a0cbdb" d="M 343.5,572.5 C 344.404,573.209 344.737,574.209 344.5,575.5C 340.5,575.5 336.5,575.5 332.5,575.5C 336.442,575.125 340.109,574.125 343.5,572.5 Z"/></g>
<g><path style="opacity:1" fill="#0678a2" d="M 352.5,575.5 C 354.857,575.337 357.19,575.503 359.5,576C 360.833,578 360.833,580 359.5,582C 357.19,582.497 354.857,582.663 352.5,582.5C 352.5,580.167 352.5,577.833 352.5,575.5 Z"/></g>
<g><path style="opacity:0.631" fill="#a7cddd" d="M 113.5,578.5 C 115.027,578.427 116.027,579.094 116.5,580.5C 114.973,580.573 113.973,579.906 113.5,578.5 Z"/></g>
<g><path style="opacity:0.757" fill="#a0c8d9" d="M 120.5,584.5 C 122.404,584.738 123.738,585.738 124.5,587.5C 122.596,587.262 121.262,586.262 120.5,584.5 Z"/></g>
<g><path style="opacity:1" fill="#d6e8ef" d="M 370.5,591.5 C 371.833,591.5 373.167,591.5 374.5,591.5C 374.5,592.833 374.5,594.167 374.5,595.5C 373.167,595.5 371.833,595.5 370.5,595.5C 370.5,594.167 370.5,592.833 370.5,591.5 Z"/></g>
<g><path style="opacity:1" fill="#aad1df" d="M 312.5,592.5 C 316.5,592.5 320.5,592.5 324.5,592.5C 324.737,593.791 324.404,594.791 323.5,595.5C 320.109,593.875 316.442,592.875 312.5,592.5 Z"/></g>
<g><path style="opacity:1" fill="#aad1df" d="M 332.5,592.5 C 336.5,592.5 340.5,592.5 344.5,592.5C 344.737,593.791 344.404,594.791 343.5,595.5C 340.109,593.875 336.442,592.875 332.5,592.5 Z"/></g>
<g><path style="opacity:0.443" fill="#a7cddd" d="M 136.5,597.5 C 138.027,597.427 139.027,598.094 139.5,599.5C 137.973,599.573 136.973,598.906 136.5,597.5 Z"/></g>
<g><path style="opacity:0.945" fill="#76afc7" d="M 246.5,651.5 C 249.152,651.41 251.485,652.076 253.5,653.5C 250.848,653.59 248.515,652.924 246.5,651.5 Z"/></g>
</svg>
