<svg width="20" height="20" viewBox="0 0 20 20" fill="none" xmlns="http://www.w3.org/2000/svg">
<path d="M17.5 12.5V15.775C17.5026 16.0158 17.4529 16.2542 17.3545 16.474C17.256 16.6937 17.1111 16.8895 16.9298 17.0479C16.7484 17.2063 16.5349 17.3235 16.3039 17.3915C16.0729 17.4595 15.8299 17.4766 15.5917 17.4417C12.2891 17.0174 9.22163 15.5064 6.87249 13.1467C4.52334 10.787 3.0261 7.71273 2.61668 4.40833C2.58186 4.17079 2.59878 3.92853 2.66626 3.69813C2.73375 3.46773 2.85022 3.25463 3.0077 3.07341C3.16517 2.8922 3.35994 2.74714 3.57867 2.64817C3.7974 2.5492 4.03494 2.49866 4.27501 2.5H7.50001C7.70602 2.49875 7.9052 2.57385 8.05909 2.71082C8.21298 2.84778 8.31069 3.0369 8.33334 3.24166C8.41604 4.33381 8.6985 5.4015 9.16668 6.39166C9.24696 6.57919 9.25567 6.78964 9.19117 6.98316C9.12666 7.17668 8.99342 7.33981 8.81668 7.44166L8.10001 7.85C7.99671 7.90681 7.90664 7.9849 7.83575 8.0791C7.76486 8.1733 7.71477 8.28147 7.68877 8.39646C7.66278 8.51145 7.66149 8.63065 7.68497 8.74618C7.70846 8.86171 7.75619 8.97094 7.82501 9.06666C8.64945 10.2743 9.69236 11.3172 10.9 12.1417C10.9957 12.2105 11.105 12.2582 11.2205 12.2817C11.336 12.3052 11.4552 12.3039 11.5702 12.2779C11.6852 12.2519 11.7934 12.2018 11.8876 12.1309C11.9818 12.06 12.0599 11.97 12.1167 11.8667L12.525 11.15C12.6329 10.9709 12.8042 10.839 13.0049 10.7803C13.2056 10.7217 13.421 10.7406 13.6083 10.8333C14.5985 11.3015 15.6662 11.584 16.7583 11.6667C16.9631 11.6893 17.1522 11.787 17.2892 11.9409C17.4262 12.0948 17.5013 12.294 17.5 12.5Z" stroke="#C8C5D0" stroke-width="1.5" stroke-linecap="round" stroke-linejoin="round"/>
</svg>
