<svg width="24" height="24" viewBox="0 0 24 24" fill="none" xmlns="http://www.w3.org/2000/svg">
<path d="M17 8C17 8.98891 16.7068 9.95561 16.1573 10.7779C15.6079 11.6001 14.827 12.241 13.9134 12.6194C12.9998 12.9978 11.9945 13.0969 11.0245 12.9039C10.0546 12.711 9.16373 12.2348 8.46447 11.5355C7.7652 10.8363 7.289 9.94536 7.09607 8.97545C6.90315 8.00555 7.00216 7.00021 7.3806 6.08658C7.75904 5.17295 8.3999 4.39206 9.22215 3.84265C10.0444 3.29324 11.0111 3 12 3C13.3261 3 14.5979 3.52678 15.5355 4.46447C16.4732 5.40215 17 6.67392 17 8ZM9 13C7.67392 13 6.40215 13.5268 5.46447 14.4645C4.52678 15.4021 4 16.6739 4 18V19C4 19 6 21 12 21C18 21 20 19 20 19V18C20 16.6739 19.4732 15.4021 18.5355 14.4645C17.5979 13.5268 16.3261 13 15 13H9Z" stroke="#C8C5D0" stroke-width="1.5" stroke-linecap="round" stroke-linejoin="round"/>
</svg>
