<svg width="25" height="24" viewBox="0 0 25 24" fill="none" xmlns="http://www.w3.org/2000/svg">
<path d="M20.5 3.99998C20.0926 3.62528 19.5532 3.42747 19.0002 3.44997C18.4471 3.47247 17.9256 3.71343 17.55 4.11998L10.67 11L9.5 15L13.5 13.83L20.38 6.99998C20.5888 6.81332 20.7579 6.5866 20.8774 6.33329C20.9968 6.07997 21.0642 5.80524 21.0754 5.5254C21.0866 5.24556 21.0414 4.96632 20.9426 4.70427C20.8437 4.44223 20.6932 4.20272 20.5 3.99998Z" stroke="#4926CD" stroke-width="1.5" stroke-linecap="round" stroke-linejoin="round"/>
<path d="M12.5 3H4.5C4.23478 3 3.98043 3.10536 3.79289 3.29289C3.60536 3.48043 3.5 3.73478 3.5 4V20C3.5 20.2652 3.60536 20.5196 3.79289 20.7071C3.98043 20.8946 4.23478 21 4.5 21H20.5C20.7652 21 21.0196 20.8946 21.2071 20.7071C21.3946 20.5196 21.5 20.2652 21.5 20V12" stroke="#4926CD" stroke-width="1.5" stroke-linecap="round" stroke-linejoin="round"/>
</svg>
