<svg width="24" height="24" viewBox="0 0 24 24" fill="none" xmlns="http://www.w3.org/2000/svg">
<path d="M20 4.00001C19.5926 3.62531 19.0532 3.4275 18.5002 3.45C17.9471 3.4725 17.4256 3.71346 17.05 4.12001L10.17 11L9 15L13 13.83L19.88 7.00001C20.0888 6.81335 20.2579 6.58663 20.3774 6.33332C20.4968 6.08001 20.5642 5.80527 20.5754 5.52543C20.5866 5.24559 20.5414 4.96635 20.4426 4.7043C20.3437 4.44226 20.1932 4.20275 20 4.00001Z" stroke="#C8C5D0" stroke-width="1.5" stroke-linecap="round" stroke-linejoin="round"/>
<path d="M12 3H4C3.73478 3 3.48043 3.10536 3.29289 3.29289C3.10536 3.48043 3 3.73478 3 4V20C3 20.2652 3.10536 20.5196 3.29289 20.7071C3.48043 20.8946 3.73478 21 4 21H20C20.2652 21 20.5196 20.8946 20.7071 20.7071C20.8946 20.5196 21 20.2652 21 20V12" stroke="#C8C5D0" stroke-width="1.5" stroke-linecap="round" stroke-linejoin="round"/>
</svg>
