<svg width="24" height="24" viewBox="0 0 24 24" fill="none" xmlns="http://www.w3.org/2000/svg">
<path d="M21.89 11.55C21.76 11.29 18.54 5 12 5C5.46002 5 2.24002 11.29 2.11002 11.55C2.03969 11.6896 2.00305 11.8437 2.00305 12C2.00305 12.1563 2.03969 12.3104 2.11002 12.45C2.24002 12.71 5.46002 19 12 19C18.54 19 21.76 12.71 21.89 12.45C21.9604 12.3104 21.997 12.1563 21.997 12C21.997 11.8437 21.9604 11.6896 21.89 11.55Z" stroke="#C8C5D0" stroke-width="1.5"/>
<path d="M12 15C13.6569 15 15 13.6569 15 12C15 10.3431 13.6569 9 12 9C10.3431 9 9 10.3431 9 12C9 13.6569 10.3431 15 12 15Z" stroke="#C8C5D0" stroke-width="1.5"/>
</svg>
