<svg width="24" height="24" viewBox="0 0 24 24" fill="none" xmlns="http://www.w3.org/2000/svg">
<path d="M16 9V7C16 5.93913 15.5786 4.92172 14.8284 4.17157C14.0783 3.42143 13.0609 3 12 3C10.9391 3 9.92172 3.42143 9.17157 4.17157C8.42143 4.92172 8 5.93913 8 7V9" stroke="#C8C5D0" stroke-width="1.5" stroke-linecap="round" stroke-linejoin="round"/>
<path d="M18 9H6C5.44772 9 5 9.44772 5 10V20C5 20.5523 5.44772 21 6 21H18C18.5523 21 19 20.5523 19 20V10C19 9.44772 18.5523 9 18 9Z" stroke="#C8C5D0" stroke-width="1.5" stroke-linecap="round" stroke-linejoin="round"/>
</svg>
