<svg width="80" height="80" viewBox="0 0 80 80" fill="none" xmlns="http://www.w3.org/2000/svg">
<circle cx="40" cy="40" r="40" fill="#F5F3FB"/>
<path d="M48.125 33.7778C48.125 35.3161 47.6485 36.8198 46.7557 38.0989C45.8629 39.3779 44.594 40.3748 43.1093 40.9635C41.6247 41.5522 39.991 41.7062 38.4149 41.4061C36.8388 41.106 35.3911 40.3652 34.2548 39.2775C33.1185 38.1898 32.3446 36.8039 32.0311 35.2951C31.7176 33.7864 31.8785 32.2226 32.4935 30.8014C33.1084 29.3801 34.1498 28.1654 35.486 27.3108C36.8221 26.4562 38.393 26 40 26C42.1549 26 44.2215 26.8194 45.7452 28.2781C47.269 29.7367 48.125 31.715 48.125 33.7778ZM35.125 41.5556C32.9701 41.5556 30.9035 42.375 29.3798 43.8336C27.856 45.2922 27 47.2705 27 49.3333V50.8889C27 50.8889 30.25 54 40 54C49.75 54 53 50.8889 53 50.8889V49.3333C53 47.2705 52.144 45.2922 50.6202 43.8336C49.0965 42.375 47.0299 41.5556 44.875 41.5556H35.125Z" fill="#C8C5D0"/>
</svg>
