<?xml version="1.0" encoding="UTF-8"?>
<svg version="1.1" xmlns="http://www.w3.org/2000/svg" width="256" height="256">
<path d="M0 0 C5.77780027 3.80809563 9.59000723 9.20639846 11 16 C11.19682299 29.64639363 6.2364246 38.46029853 -3 48 C-8.23311855 53.32359223 -13.55780642 58.55643949 -18.88330078 63.78735352 C-20.69736921 65.5713532 -22.50527099 67.36141983 -24.3125 69.15234375 C-24.86969727 69.69608139 -25.42689453 70.23981903 -26.00097656 70.80003357 C-28.40155281 73.18475062 -29.91412646 74.74237939 -31 78 C-30.58939154 80.21163565 -30.58939154 80.21163565 -29.77172852 82.62548828 C-29.32984947 84.03569748 -29.32984947 84.03569748 -28.87904358 85.47439575 C-28.3839756 87.00687454 -28.3839756 87.00687454 -27.87890625 88.5703125 C-27.54132797 89.63877411 -27.20374969 90.70723572 -26.85594177 91.80807495 C-25.76636846 95.24972841 -24.66460415 98.68734124 -23.5625 102.125 C-22.85401765 104.35651698 -22.14632711 106.58828552 -21.43945312 108.8203125 C-20.73197658 111.04954448 -20.02429409 113.2787111 -19.31640625 115.5078125 C-18.96510651 116.61481506 -18.61380676 117.72181763 -18.25186157 118.86236572 C-16.423208 124.60447438 -14.56109855 130.33265103 -12.64404297 136.04589844 C-12.26787338 137.1809079 -11.8917038 138.31591736 -11.50413513 139.48532104 C-10.78758029 141.64408552 -10.06047918 143.7993877 -9.32118225 145.95046997 C-6.2227717 155.34178202 -6.2227717 155.34178202 -8 160 C-10.0378418 162.70068359 -10.0378418 162.70068359 -12.69921875 165.3984375 C-13.17188675 165.8782608 -13.64455475 166.35808411 -14.13154602 166.85244751 C-15.12988554 167.85853883 -16.13461006 168.85833009 -17.14526367 169.85205078 C-18.68512192 171.37265166 -20.19334707 172.9203608 -21.70117188 174.47265625 C-22.67791608 175.44969078 -23.65637707 176.42501267 -24.63671875 177.3984375 C-25.52061279 178.28192871 -26.40450684 179.16541992 -27.31518555 180.07568359 C-30 182 -30 182 -33.15112305 182.49511719 C-36 182 -36 182 -37.65673828 180.63232422 C-38.08196777 179.9879541 -38.50719727 179.34358398 -38.9453125 178.6796875 C-39.44192383 177.94459961 -39.93853516 177.20951172 -40.45019531 176.45214844 C-40.96163086 175.64293945 -41.47306641 174.83373047 -42 174 C-42.53463867 173.17790039 -43.06927734 172.35580078 -43.62011719 171.50878906 C-45.40152958 168.73185114 -47.1418364 165.93228907 -48.875 163.125 C-49.51195801 162.09938965 -50.14891602 161.0737793 -50.80517578 160.01708984 C-52.51489253 157.26099816 -54.22092987 154.50268318 -55.92431641 151.74267578 C-57.02821753 149.9542858 -58.13315531 148.16653959 -59.23828125 146.37890625 C-61.45290701 142.79574049 -63.66478844 139.21089007 -65.875 135.625 C-66.22737732 135.05348206 -66.57975464 134.48196411 -66.94281006 133.89312744 C-67.93944878 132.27572951 -68.93460295 130.65741708 -69.9296875 129.0390625 C-70.49929199 128.11303223 -71.06889648 127.18700195 -71.65576172 126.23291016 C-73 124 -73 124 -74 122 C-78.054084 122.52879357 -79.90529007 124.56331619 -82.6875 127.4375 C-83.47511719 128.24058594 -84.26273437 129.04367188 -85.07421875 129.87109375 C-88.39925444 133.54684315 -88.30388407 136.88498059 -88.61328125 141.640625 C-88.7277071 143.20188238 -88.8429683 144.76307873 -88.95898438 146.32421875 C-89.13808435 148.78359703 -89.31203844 151.24287449 -89.47143555 153.70361328 C-89.62763854 156.07990811 -89.80620452 158.45369042 -89.98828125 160.828125 C-90.03012039 161.55646545 -90.07195953 162.28480591 -90.11506653 163.03521729 C-90.65352311 169.64364837 -93.51698708 174.0794945 -98.4375 178.375 C-100.61483326 180.12986562 -101.90470131 180.9727718 -104.625 181.75 C-111.04357713 179.72308091 -115.01957139 170.36045616 -118.3125 164.9375 C-119.10817383 163.6390918 -119.10817383 163.6390918 -119.91992188 162.31445312 C-120.45810547 161.43595703 -120.99628906 160.55746094 -121.55078125 159.65234375 C-122.11192627 158.74814697 -122.67307129 157.8439502 -123.2512207 156.91235352 C-124.47347633 154.87685339 -125.63716453 152.80554923 -126.75463867 150.71069336 C-131.63822362 141.89907676 -136.949542 137.5340597 -145.6875 132.6875 C-147.89973958 131.39973958 -150.11197917 130.11197917 -152.32421875 128.82421875 C-153.4126709 128.20337402 -154.50112305 127.5825293 -155.62255859 126.94287109 C-159.1986473 124.88572826 -162.74377037 122.78643885 -166.26953125 120.64453125 C-167.88178589 119.66963745 -167.88178589 119.66963745 -169.52661133 118.67504883 C-172 117 -172 117 -173 115 C-173.39537252 111.37658601 -173.39155144 109.58871564 -171.34765625 106.515625 C-170.59355469 105.76796875 -169.83945313 105.0203125 -169.0625 104.25 C-168.33160156 103.49203125 -167.60070312 102.7340625 -166.84765625 101.953125 C-159.40153748 96.84604765 -149.15832248 97.40250738 -140.43945312 96.7890625 C-128.25812975 95.9321487 -128.25812975 95.9321487 -118.5 89 C-117.21609375 87.6696875 -117.21609375 87.6696875 -115.90625 86.3125 C-113.78797577 84.24227461 -113.78797577 84.24227461 -114 82 C-116.18100571 80.38163726 -116.18100571 80.38163726 -119.01953125 78.7265625 C-120.09557617 78.07244385 -121.17162109 77.4183252 -122.28027344 76.74438477 C-122.85644409 76.39868439 -123.43261475 76.05298401 -124.02624512 75.69680786 C-126.42306438 74.25864259 -128.81034987 72.80499943 -131.19827271 71.35212708 C-132.40518966 70.61805712 -133.61261064 69.88481524 -134.82052612 69.15238953 C-142.24523795 64.64821462 -149.57632602 59.99909092 -156.89990234 55.33300781 C-158.99675145 54.00206197 -161.10098829 52.68352616 -163.20703125 51.3671875 C-164.4923048 50.55747783 -165.77746778 49.74759261 -167.0625 48.9375 C-168.16722656 48.24527344 -169.27195312 47.55304688 -170.41015625 46.83984375 C-173 45 -173 45 -175 42 C-174.76896317 35.48030293 -169.2407594 31.53435808 -164.90966797 27.22338867 C-163.38099811 25.69350288 -161.88401684 24.13669797 -160.38671875 22.57617188 C-159.41325637 21.59456777 -158.43805019 20.6146893 -157.4609375 19.63671875 C-156.58228027 18.74686279 -155.70362305 17.85700684 -154.79833984 16.94018555 C-151.2077069 14.45067587 -149.3173136 14.73000769 -145 15 C-141.83378601 15.73908997 -141.83378601 15.73908997 -138.58081055 16.78833008 C-137.35230881 17.17906204 -136.12380707 17.56979401 -134.858078 17.97236633 C-133.53423202 18.40457224 -132.21044711 18.83696525 -130.88671875 19.26953125 C-129.50849611 19.71166047 -128.12997576 20.15286265 -126.75117493 20.59318542 C-123.13049107 21.75204821 -119.51377378 22.92282692 -115.89782715 24.09637451 C-112.24460132 25.27998579 -108.58807817 26.45330854 -104.93164062 27.62695312 C-100.80615904 28.9512491 -96.68095845 30.27630277 -92.5587616 31.61079407 C-90.13122454 32.3955316 -87.70232497 33.17607195 -85.27182007 33.9515686 C-83.19415102 34.61734283 -81.12049548 35.29588193 -79.05264282 35.99154663 C-78.17909149 36.2762381 -77.30554016 36.56092957 -76.40551758 36.85424805 C-75.66634598 37.10216599 -74.92717438 37.35008392 -74.16560364 37.60551453 C-71.43613186 38.10271399 -69.64416996 37.83174366 -67 37 C-65.09745757 35.64302504 -65.09745757 35.64302504 -63.43823242 33.82885742 C-62.78372604 33.16113815 -62.12921967 32.49341888 -61.45487976 31.8054657 C-60.76207413 31.07946671 -60.06926849 30.35346771 -59.35546875 29.60546875 C-58.62685135 28.86170486 -57.89823395 28.11794098 -57.14753723 27.35163879 C-54.03476441 24.17360248 -50.94596297 20.97263978 -47.85522461 17.77319336 C-45.59284232 15.43813177 -43.31829477 13.11540861 -41.04296875 10.79296875 C-40.35623581 10.07304245 -39.66950287 9.35311615 -38.96195984 8.6113739 C-28.74183541 -1.81213146 -13.68772554 -7.13476521 0 0 Z M-36.75390625 22.6171875 C-38.36586457 24.29231348 -39.97851519 25.96677349 -41.59179688 27.640625 C-44.09195724 30.26526343 -46.5833596 32.89725513 -49.06225586 35.54199219 C-51.47922866 38.1098921 -53.92633195 40.64583647 -56.37890625 43.1796875 C-57.11041397 43.97849335 -57.84192169 44.77729919 -58.59559631 45.60031128 C-63.59398968 50.71800441 -63.59398968 50.71800441 -67.04394531 51.40994263 C-69.51355177 51.23698614 -71.62538441 50.70827239 -74 50 C-75.53549248 49.56652756 -75.53549248 49.56652756 -77.102005 49.1242981 C-80.77619417 48.02719163 -84.41572114 46.83992388 -88.0546875 45.6328125 C-89.40525553 45.19218841 -90.75610152 44.75241551 -92.10720825 44.31344604 C-95.6465031 43.16142759 -99.18246898 41.99952932 -102.71765137 40.83496094 C-108.36561683 38.9762744 -114.01862818 37.13299243 -119.6715126 35.28933334 C-121.62590669 34.65039474 -123.57891079 34.0073567 -125.53170776 33.36355591 C-129.01502232 32.22212311 -132.5058486 31.10773199 -136 30 C-137.04891418 29.64959656 -138.09782837 29.29919312 -139.17852783 28.93817139 C-140.14844666 28.63485901 -141.11836548 28.33154663 -142.11767578 28.01904297 C-142.9579129 27.74687958 -143.79815002 27.47471619 -144.66384888 27.19430542 C-147.11626422 26.77156517 -147.11626422 26.77156517 -149.40499878 28.34207153 C-151.4783538 30.09708106 -153.22982185 31.94242822 -155 34 C-155.825 34.804375 -156.65 35.60875 -157.5 36.4375 C-157.995 36.953125 -158.49 37.46875 -159 38 C-157.68856095 41.93431716 -156.1567343 42.39088516 -152.62109375 44.484375 C-152.06573441 44.81694809 -151.51037506 45.14952118 -150.93818665 45.49217224 C-149.73680718 46.2104371 -148.53306691 46.92476468 -147.32727051 47.6355896 C-144.7793506 49.13811513 -142.24337012 50.66025735 -139.70663452 52.18156433 C-138.40335008 52.96296036 -137.09949024 53.74339746 -135.79507446 54.52290344 C-129.40459962 58.3439952 -123.06822148 62.24790895 -116.75 66.1875 C-115.78247803 66.78594727 -114.81495605 67.38439453 -113.81811523 68.00097656 C-108.33728568 71.42148547 -103.08994242 75.01952012 -98 79 C-98.69163613 86.59416472 -103.34761647 90.55706479 -108.5 95.75 C-108.97362976 96.22966217 -109.44725952 96.70932434 -109.9352417 97.20352173 C-116.22204574 103.46079969 -121.48676313 108.10300342 -130.64624023 108.21142578 C-132.0214887 108.17695017 -133.39635991 108.12190295 -134.77001953 108.04736328 C-139.06282769 107.95618693 -143.30736387 108.61265335 -147.5625 109.125 C-149.18846198 109.29750718 -150.81473979 109.46707989 -152.44140625 109.6328125 C-153.61574219 109.75398438 -154.79007813 109.87515625 -156 110 C-156 110.99 -156 111.98 -156 113 C-154.03755394 114.43524184 -152.15224314 115.6362724 -150.05078125 116.8359375 C-149.13633492 117.37778183 -149.13633492 117.37778183 -148.20341492 117.93057251 C-146.24577299 119.0892786 -144.28006652 120.23323958 -142.3125 121.375 C-140.36353078 122.51075282 -138.4167771 123.64975159 -136.47514343 124.79800415 C-135.26638342 125.51242858 -134.0533713 126.2197248 -132.83552551 126.91854858 C-127.20269953 130.23962386 -123.24355005 134.18667192 -119.87890625 139.765625 C-119.06389648 141.10173828 -119.06389648 141.10173828 -118.23242188 142.46484375 C-117.68134766 143.38394531 -117.13027344 144.30304688 -116.5625 145.25 C-115.46119116 147.06865135 -114.35833756 148.88636817 -113.25390625 150.703125 C-112.71910645 151.58291016 -112.18430664 152.46269531 -111.63330078 153.36914062 C-109.18577948 157.31151574 -106.60909635 161.16319751 -104 165 C-101.70206359 161.31406791 -101.60974349 157.91786273 -101.359375 153.63671875 C-101.25762349 152.17765633 -101.15472238 150.7186737 -101.05078125 149.25976562 C-100.89646162 146.97608012 -100.75029806 144.69291555 -100.62451172 142.4074707 C-99.74979588 127.03342525 -99.74979588 127.03342525 -94.54394531 122.13989258 C-93.06279948 121.04636477 -91.53187578 120.02125052 -90 119 C-90 118.34 -90 117.68 -90 117 C-89.10474609 116.61328125 -89.10474609 116.61328125 -88.19140625 116.21875 C-85.81914183 114.89941578 -84.61586875 113.6125068 -82.9375 111.5 C-80.31008368 108.21050265 -78.39210027 106.18220909 -74.02490234 105.6105957 C-71 106 -71 106 -69.15087891 107.75463867 C-68.63960449 108.5716626 -68.12833008 109.38868652 -67.6015625 110.23046875 C-66.72032715 111.605979 -66.72032715 111.605979 -65.82128906 113.00927734 C-64.91975098 114.48968506 -64.91975098 114.48968506 -64 116 C-63.39124023 116.96502441 -62.78248047 117.93004883 -62.15527344 118.92431641 C-60.20274255 122.03853731 -58.28574108 125.17248249 -56.375 128.3125 C-55.32770755 130.0240099 -54.28041042 131.73551699 -53.2326355 133.44673157 C-52.1757778 135.17331152 -51.12011244 136.90061684 -50.06445312 138.62792969 C-46.93406407 143.74109591 -43.78141456 148.84037173 -40.625 153.9375 C-39.81361572 155.25004761 -39.81361572 155.25004761 -38.98583984 156.58911133 C-38.48777832 157.39372803 -37.9897168 158.19834473 -37.4765625 159.02734375 C-37.04424316 159.72593506 -36.61192383 160.42452637 -36.16650391 161.14428711 C-35.1381437 162.78023645 -34.07185748 164.39221379 -33 166 C-29.5330027 164.47420165 -26.92862094 162.47688191 -24.125 159.9375 C-23.30257812 159.22464844 -22.48015625 158.51179687 -21.6328125 157.77734375 C-19.58458498 154.29339694 -20.26277739 152.63277947 -21.20428467 148.83872986 C-22.69495877 143.52072113 -24.37024855 138.26290746 -26.07000923 133.00889015 C-26.76739691 130.85282307 -27.45962661 128.69515751 -28.15061951 126.53703308 C-29.86578184 121.18369002 -31.58942417 115.83308626 -33.31311035 110.48248291 C-34.774911 105.94380269 -36.23331228 101.40405778 -37.68717766 96.86282921 C-38.36682703 94.74467658 -39.05142163 92.62816507 -39.73622131 90.51167297 C-40.15455512 89.2068361 -40.57265333 87.90192366 -40.99047852 86.59692383 C-41.5376931 84.89890373 -41.5376931 84.89890373 -42.09596252 83.1665802 C-42.9852052 80.05182186 -43.78502709 77.23630804 -44 74 C-42.82389832 71.91880798 -42.82389832 71.91880798 -41.02026367 70.07788086 C-40.36923676 69.39861542 -39.71820984 68.71934998 -39.04745483 68.01950073 C-38.37179474 67.35306549 -37.69613464 66.68663025 -37 66 C-36.40418121 65.39503693 -35.80836243 64.79007385 -35.19448853 64.16677856 C-33.3750873 62.34073227 -31.52892027 60.54566783 -29.67578125 58.75390625 C-28.30344282 57.40880852 -26.93171605 56.06308651 -25.56054688 54.71679688 C-23.43352365 52.63301682 -21.30304784 50.55336545 -19.16186523 48.48413086 C-17.07142405 46.46069867 -14.99762485 44.42135511 -12.92578125 42.37890625 C-11.9725573 41.46909752 -11.9725573 41.46909752 -11.00007629 40.54090881 C-5.68381964 35.25671746 -2.49516394 29.29656646 -0.9375 21.9375 C-1.01813861 16.85726733 -2.75676028 13.8363986 -6 10 C-17.81938596 4.09030702 -29.33899346 14.62109328 -36.75390625 22.6171875 Z " fill="#CCC9D3" transform="translate(207,44)"/>
<path d="M0 0 C0.66 0.33 1.32 0.66 2 1 C1.34 2.98 0.68 4.96 0 7 C-2.31 7.33 -4.62 7.66 -7 8 C-6.02133662 6.85373678 -5.04205413 5.70800212 -4.0625 4.5625 C-3.51722656 3.92441406 -2.97195312 3.28632813 -2.41015625 2.62890625 C-1.63204305 1.73008851 -0.84063472 0.84063472 0 0 Z " fill="#D3D1D8" transform="translate(43,144)"/>
<path d="M0 0 C-1.50223584 4.20626034 -4.28550034 5.73900021 -8 8 C-8.66 7.67 -9.32 7.34 -10 7 C-8.90536178 5.82438854 -7.79892814 4.6597511 -6.6875 3.5 C-6.07261719 2.8503125 -5.45773438 2.200625 -4.82421875 1.53125 C-3 0 -3 0 0 0 Z " fill="#D3D1D7" transform="translate(55,62)"/>
<path d="M0 0 C0.99 0.33 1.98 0.66 3 1 C-0.32307692 5.8 -0.32307692 5.8 -3.75 6.8125 C-4.4925 6.874375 -5.235 6.93625 -6 7 C-4.02 4.69 -2.04 2.38 0 0 Z " fill="#DAD8DD" transform="translate(117,161)"/>
</svg>
