<svg width="24" height="24" viewBox="0 0 24 24" fill="none" xmlns="http://www.w3.org/2000/svg">
<path d="M21 15V20C21 20.2652 20.8946 20.5196 20.7071 20.7071C20.5196 20.8946 20.2652 21 20 21H4C3.73478 21 3.48043 20.8946 3.29289 20.7071C3.10536 20.5196 3 20.2652 3 20V4C3 3.73478 3.10536 3.48043 3.29289 3.29289C3.48043 3.10536 3.73478 3 4 3H19" stroke="#C8C5D0" stroke-width="1.5" stroke-linecap="round" stroke-linejoin="round"/>
<path d="M12.9999 7.12999C12.6742 7.04073 12.3377 6.99698 11.9999 6.99999C11.2976 6.99927 10.6075 7.18348 9.99896 7.5341C9.39042 7.88471 8.88491 8.38937 8.53329 8.99733C8.18166 9.60528 7.9963 10.2951 7.99585 10.9974C7.9954 11.6997 8.17987 12.3898 8.53072 12.9982C8.88157 13.6066 9.38642 14.1119 9.99452 14.4633C10.6026 14.8147 11.2925 14.9998 11.9948 15C12.6971 15.0002 13.3871 14.8154 13.9954 14.4643C14.6037 14.1133 15.1088 13.6082 15.4599 13" stroke="#C8C5D0" stroke-width="1.5" stroke-linecap="round" stroke-linejoin="round"/>
<path d="M17 9H21M19 7V11M12 15C10.6739 15 9.40215 15.5268 8.46447 16.4645C7.52678 17.4021 7 18.6739 7 20V21H17V20C17 18.6739 16.4732 17.4021 15.5355 16.4645C14.5979 15.5268 13.3261 15 12 15Z" stroke="#C8C5D0" stroke-width="1.5" stroke-linecap="round" stroke-linejoin="round"/>
</svg>
